<svg id="Icono_Brr_Busqueda" data-name="Icono Brr Busqueda" xmlns="http://www.w3.org/2000/svg" width="37.102" height="37.13" viewBox="0 0 37.102 37.13">
  <path id="Trazado_281" data-name="Trazado 281" d="M16.508,0h-2.9a3.423,3.423,0,0,1-.48.136A14.924,14.924,0,0,0,3.742,5.109a15.105,15.105,0,0,0,1.748,21.6,14.644,14.644,0,0,0,16.611,1.5,1.154,1.154,0,0,1,1.633.246c1.456,1.516,2.96,2.986,4.45,4.469,1.045,1.04,2.062,2.11,3.157,3.094a3.509,3.509,0,0,0,3.606.929A3.749,3.749,0,0,0,37.1,34.661V33.355A7.887,7.887,0,0,0,34.908,30.2c-2.156-2.114-4.259-4.283-6.425-6.387a1.208,1.208,0,0,1-.263-1.748,13.324,13.324,0,0,0,1.753-5.326A14.867,14.867,0,0,0,19.927.853C18.82.472,17.649.279,16.508,0M15.045,26.175A11.123,11.123,0,1,1,26.151,15.061,11.132,11.132,0,0,1,15.045,26.175" transform="translate(0 0.001)" fill="#1c164e"/>
  <path id="Trazado_282" data-name="Trazado 282" d="M92.652,44.056c.749-.171,1.561-.414,2.39-.535a6.577,6.577,0,0,1,6.512,3.285c.162.3.313.6.5.883a1.534,1.534,0,0,0,2.726-1.4,8.77,8.77,0,0,0-2.671-3.637A9.662,9.662,0,0,0,92.247,41,1.533,1.533,0,0,0,91.1,42.83a1.5,1.5,0,0,0,1.556,1.226" transform="translate(-81.429 -34.297)" fill="#e7002a"/>
</svg>
