<svg>
<defs>
    <style>
        .d-navbar-mobile{fill:#e40032;}
    </style>
</defs>
<path class="d-navbar-mobile" d="M18.058,19.489l4.281,5.827a.162.162,0,0,1,.03.094l.024,4.562a.16.16,0,0,1-.159.16l-.637,0a.159.159,0,0,1-.16-.158l-.009-1.618-2.3.012.009,1.619a.159.159,0,0,1-.159.16l-.637,0a.158.158,0,0,1-.159-.158L18.16,25.8a.159.159,0,0,1,.158-.16l.637,0a.16.16,0,0,1,.16.159l.009,1.618,2.3-.012-.009-1.731-3.887-5.292-3.307.017L10.39,25.731l.009,1.73,2.3-.012-.009-1.618a.159.159,0,0,1,.158-.16l.637,0a.159.159,0,0,1,.16.159l.022,4.191a.159.159,0,0,1-.158.16l-.637,0a.159.159,0,0,1-.16-.158L12.705,28.4l-2.3.012.009,1.619a.16.16,0,0,1-.159.16l-.637,0a.159.159,0,0,1-.16-.158l-.024-4.562a.159.159,0,0,1,.03-.094l4.22-5.872a.161.161,0,0,1,.128-.066l4.118-.021a.158.158,0,0,1,.129.065m-6.63-4.765-6.888-2.2a.154.154,0,0,0-.1,0L.11,13.959a.159.159,0,0,0-.1.2l.2.6a.159.159,0,0,0,.2.1l1.536-.508.723,2.185-1.537.508a.159.159,0,0,0-.1.2l.2.6a.16.16,0,0,0,.2.1l3.98-1.316a.159.159,0,0,0,.1-.2l-.2-.6a.16.16,0,0,0-.2-.1l-1.537.508-.722-2.185L4.5,13.515l6.256,2,.511,1.546.527,1.594L7.958,23.984l-1.644.543-.722-2.185,1.537-.508a.159.159,0,0,0,.1-.2l-.2-.6a.159.159,0,0,0-.2-.1l-3.98,1.316a.159.159,0,0,0-.1.2l.2.6a.159.159,0,0,0,.2.1l1.537-.508.723,2.185-1.537.508a.159.159,0,0,0-.1.2l.2.6a.159.159,0,0,0,.2.1L8.5,24.809a.159.159,0,0,0,.08-.058L12.8,18.879a.158.158,0,0,0,.022-.143L11.53,14.827a.159.159,0,0,0-.1-.1m8.494-1.076,6.865-2.27a.158.158,0,0,0,.079-.058l2.663-3.7a.159.159,0,0,0-.036-.222l-.517-.372a.159.159,0,0,0-.222.036l-.945,1.314L25.94,7.029l.944-1.314a.159.159,0,0,0-.036-.222l-.517-.372a.158.158,0,0,0-.222.036l-2.446,3.4a.159.159,0,0,0,.036.223l.517.372a.159.159,0,0,0,.222-.036L25.383,7.8l1.869,1.343-1.01,1.405-6.235,2.062-2.686-1.93-.034-6.567L18.3,2.713l1.869,1.343L19.222,5.37a.159.159,0,0,0,.036.222l.517.372A.159.159,0,0,0,20,5.927l2.446-3.4a.159.159,0,0,0-.036-.222L21.89,1.93a.159.159,0,0,0-.222.036L20.723,3.28,18.855,1.938,19.8.623A.159.159,0,0,0,19.763.4L19.246.03a.158.158,0,0,0-.222.036l-2.663,3.7a.162.162,0,0,0-.03.094l.038,7.231a.158.158,0,0,0,.066.128l3.344,2.4a.159.159,0,0,0,.143.022m11.56.953.193-.607a.159.159,0,0,0-.1-.2l-4.346-1.387a.16.16,0,0,0-.1,0l-6.865,2.27a.157.157,0,0,0-.1.1L18.909,18.7a.158.158,0,0,0,.023.142l4.281,5.828a.162.162,0,0,0,.08.057l4.346,1.388a.159.159,0,0,0,.2-.1l.193-.606a.158.158,0,0,0-.1-.2l-1.542-.493.7-2.193,1.542.492a.159.159,0,0,0,.2-.1l.193-.607a.159.159,0,0,0-.1-.2l-3.993-1.274a.158.158,0,0,0-.2.1l-.194.607a.158.158,0,0,0,.1.2l1.541.493-.7,2.193L23.829,23.9l-3.888-5.293,1.006-3.15L27.182,13.4l1.648.527-.7,2.193-1.542-.493a.16.16,0,0,0-.2.1l-.193.607a.159.159,0,0,0,.1.2l3.992,1.274a.159.159,0,0,0,.2-.1l.194-.607a.16.16,0,0,0-.1-.2l-1.542-.492.7-2.193,1.542.493a.16.16,0,0,0,.2-.1m-19.57-.94,3.315-2.442a.16.16,0,0,0,.065-.13L15.244,3.86a.157.157,0,0,0-.031-.093L12.508.093a.159.159,0,0,0-.223-.034l-.513.378a.159.159,0,0,0-.033.223l.96,1.3L10.846,3.328l-.96-1.3a.159.159,0,0,0-.223-.033l-.513.378a.159.159,0,0,0-.033.223L11.6,5.966A.159.159,0,0,0,11.825,6l.513-.378a.159.159,0,0,0,.034-.223l-.96-1.3,1.853-1.365,1.026,1.394.043,6.567-2.663,1.961L5.414,10.665,4.387,9.271,6.24,7.906l.959,1.3a.159.159,0,0,0,.223.033l.513-.378a.16.16,0,0,0,.034-.223L5.483,5.268a.159.159,0,0,0-.223-.034l-.513.378a.159.159,0,0,0-.033.223l.959,1.3L3.821,8.5l-.96-1.3a.159.159,0,0,0-.223-.034l-.513.378a.159.159,0,0,0-.033.223L4.8,11.439a.156.156,0,0,0,.08.057l6.892,2.19a.16.16,0,0,0,.143-.024" transform="translate(0 0)"></path></svg>